<svg
    width="32"
    height="32"
    xmlns="http://www.w3.org/2000/svg"
    xml:space="preserve"
    version="1.1"
    enable-background="new 0 0 56.693 56.693"
    aria-hidden="true"
>
    <path
    stroke="null"
    d="m0.1751,17.15188c3.94236,0 7.64844,1.55564 10.43357,4.38514c2.79023,2.8295 4.32641,6.5983 4.32641,10.61029l6.07532,0c0,-11.65318 -9.34703,-21.13309 -20.8353,-21.13309l0,6.13765zm0.00955,-10.87986c14.05048,0 25.48206,11.61072 25.48206,25.88302l6.07532,0c0,-17.65702 -14.15748,-32.02003 -31.55738,-32.02003l0,6.13701zm8.40125,21.59567c0,2.34698 -1.88456,4.25068 -4.20795,4.25068s-4.20795,-1.90306 -4.20795,-4.25068c0,-2.34826 1.88393,-4.25068 4.20731,-4.25068s4.20858,1.90242 4.20858,4.25068z"
    />
</svg>