<svg width="32" height="32" xmlns="http://www.w3.org/2000/svg" xml:space="preserve" version="1.1" aria-hidden="true">
  <path fill="#ffffff" d="m30.71074,26.76018l-10.67522,-10.76024l10.67522,-10.76024c1.15253,-1.16171 1.15253,-3.03198 0,-4.19369c-1.15253,-1.16171 -3.00802,-1.16171 -4.16056,0l-10.67522,10.76024l-10.67522,-10.76024c-1.15253,-1.16171 -3.00802,-1.16171 -4.16056,0c-1.15253,1.16171 -1.15253,3.03198 0,4.19369l10.67522,10.76024l-10.67522,10.76024c-1.15253,1.16171 -1.15253,3.03198 0,4.19369c1.15253,1.16171 3.00802,1.16171 4.16056,0l10.67522,-10.76024l10.67522,10.76024c1.15253,1.16171 3.00802,1.16171 4.16056,0c1.14436,-1.16171 1.14436,-3.04022 0,-4.19369z"/>
</svg>