<svg
    width="32"
    height="32"
    xmlns="http://www.w3.org/2000/svg"
    aria-hidden="true"
>
    <path
    fill="#000000"
    d="m15.91667,0c-8.80151,0 -15.91667,7.32188 -15.91667,16.38005c0,7.24068 4.55893,13.36976 10.88338,15.53903c0.79072,0.16308 1.08036,-0.35245 1.08036,-0.7861c0,-0.37974 -0.02606,-1.68137 -0.02606,-3.03758c-4.42763,0.97647 -5.34965,-1.95261 -5.34965,-1.95261c-0.71155,-1.89836 -1.76584,-2.38627 -1.76584,-2.38627c-1.44916,-1.00343 0.10556,-1.00343 0.10556,-1.00343c1.6075,0.1085 2.451,1.68137 2.451,1.68137c1.42277,2.49477 3.71543,1.78987 4.63777,1.35588c0.13162,-1.05768 0.55354,-1.78987 1.00151,-2.19656c-3.53136,-0.37974 -7.24679,-1.78987 -7.24679,-8.08169c0,-1.78987 0.63205,-3.25424 1.63357,-4.39313c-0.15801,-0.4067 -0.71155,-2.0884 0.15834,-4.33921c0,0 1.34393,-0.43399 4.3742,1.68137a15.30287,15.63222 0 0 1 3.97933,-0.54248c1.34393,0 2.71392,0.19004 3.97901,0.54248c3.0306,-2.11536 4.37453,-1.68137 4.37453,-1.68137c0.86989,2.25081 0.31603,3.93252 0.15801,4.33921c1.0279,1.13889 1.63389,2.60326 1.63389,4.39313c0,6.29183 -3.71543,7.67466 -7.27318,8.08169c0.57993,0.51519 1.08036,1.49133 1.08036,3.03725c0,2.19656 -0.02606,3.95947 -0.02606,4.50163c0,0.43399 0.28996,0.94952 1.08036,0.78677c6.32445,-2.16994 10.88338,-8.29869 10.88338,-15.53936c0.02606,-9.05817 -7.11516,-16.38005 -15.89028,-16.38005z"
    clip-rule="evenodd"
    fill-rule="evenodd"
    ></path>
</svg>